<svg height="64" viewBox="0 0 128 32" fill="none"
                xmlns="http://www.w3.org/2000/svg">
                <path fill-rule="evenodd" clip-rule="evenodd"
                    d="M0 0H32V32H0V0ZM1.50856 1.50856V13.4333H5.37415V17.5399H1.50856V30.4914H11.7908V24.8292H5.88747V17.9506H12.766V23.6998H17.7966V17.7966H23.2891V11.7393H30.4914V1.50856H1.50856ZM18.6693 24.6751V30.4914H23.2378V24.6751L18.6693 24.6751ZM30.4914 24.6751L23.2892 24.6751V17.9505H30.4914V24.6751ZM13.4334 13.5359H17.54V17.6425H13.4334V13.5359ZM23.2891 7.58148H19.1825V11.6881H23.2891V7.58148ZM7.11938 7.63275H11.226V11.7393H7.11938V7.63275ZM13.1767 1.62689H17.2833V5.73348H13.1767V1.62689Z"
                    fill="#FACA20" />
                <path fill-rule="evenodd" clip-rule="evenodd"
                    d="M108.571 8.84999C108.11 8.43549 107.853 7.86554 107.853 7.24378C107.853 6.5702 108.11 6.05207 108.571 5.58575C109.032 5.17124 109.647 4.91217 110.364 4.91217C111.081 4.91217 111.696 5.11942 112.157 5.58575C112.618 6.00025 112.874 6.5702 112.874 7.24378C112.874 7.86554 112.618 8.43549 112.157 8.84999C111.696 9.2645 111.081 9.52357 110.364 9.52357C109.647 9.47176 109.032 9.2645 108.571 8.84999ZM112.413 10.9225V24.7049H108.212V10.9225H112.413ZM59.4485 24.7049V7.34738H54.4799L49.7162 19.3681L44.9013 7.34738H39.984V24.7049H44.1842V14.2904L48.0259 24.7049H51.4066L55.2482 14.2904V24.7049H59.4485ZM62.5218 21.5961C63.1364 22.6842 63.956 23.5132 65.0317 24.0832C66.1073 24.6531 67.3367 24.9122 68.7197 24.9122C70.0514 24.9122 71.2808 24.6013 72.3565 24.0314C73.4321 23.4614 74.3029 22.6324 74.9176 21.5443C75.5322 20.4562 75.8396 19.2127 75.8396 17.8138C75.8396 16.4148 75.5322 15.1713 74.9176 14.0832C74.3029 12.9951 73.4321 12.1661 72.3565 11.5961C71.2808 11.0262 70.0514 10.7153 68.7197 10.7153C67.3879 10.7153 66.1586 11.0262 65.0829 11.5961C64.0072 12.1661 63.1364 12.9951 62.5218 14.0832C61.9071 15.1713 61.5998 16.4148 61.5998 17.8138C61.5998 19.2645 61.9071 20.5081 62.5218 21.5961ZM71.5369 17.8138C71.5369 18.9018 71.2808 19.7827 70.7173 20.3526C70.1539 20.9744 69.4368 21.2853 68.6684 21.2334C67.8489 21.2334 67.183 20.9226 66.6708 20.3526C66.1073 19.7827 65.8512 18.9018 65.8512 17.8138C65.8512 16.7257 66.1073 15.8449 66.6708 15.2749C67.2342 14.705 67.9001 14.3941 68.7197 14.3941C69.488 14.3941 70.1539 14.705 70.7173 15.2749C71.2808 15.8449 71.5369 16.7257 71.5369 17.8138ZM80.3984 24.2904C79.4764 23.8759 78.7593 23.306 78.1958 22.5806C77.6324 21.8552 77.3762 21.078 77.2738 20.1454H81.4228C81.474 20.6117 81.6789 21.0262 82.0887 21.2853C82.4985 21.5961 82.9595 21.7516 83.5229 21.7516C84.0352 21.7516 84.4449 21.648 84.7523 21.4407C85.0596 21.2334 85.162 20.9744 85.162 20.6117C85.162 20.1972 84.9572 19.9381 84.5474 19.7309C84.1376 19.5236 83.4717 19.3164 82.5497 19.1091C81.5765 18.9018 80.7569 18.6428 80.091 18.3837C79.4251 18.1246 78.8617 17.7101 78.4007 17.192C77.9397 16.6221 77.6836 15.8967 77.6836 14.964C77.6836 14.1868 77.8885 13.4614 78.3495 12.7879C78.7593 12.1143 79.4251 11.5961 80.2447 11.2335C81.0643 10.8708 82.0887 10.6635 83.2156 10.6635C84.9059 10.6635 86.2889 11.078 87.2622 11.9588C88.2354 12.8397 88.7988 13.9796 88.9525 15.3785H85.1108C85.0596 14.9122 84.8547 14.4977 84.4962 14.2386C84.1376 13.9796 83.6766 13.8241 83.1132 13.8241C82.6009 13.8241 82.2424 13.9278 81.9863 14.0832C81.7302 14.2904 81.5765 14.5495 81.5765 14.8604C81.5765 15.2749 81.7814 15.534 82.1912 15.7412C82.6009 15.9485 83.2668 16.1557 84.1376 16.3112C85.162 16.5702 85.9816 16.8293 86.5963 17.0884C87.2109 17.3474 87.7744 17.7619 88.2866 18.3319C88.7476 18.9018 89.0037 19.679 89.0549 20.6117C89.0549 21.4407 88.8501 22.1661 88.3891 22.7879C87.9281 23.4096 87.3134 23.9278 86.4426 24.2904C85.623 24.6531 84.6498 24.8604 83.5229 24.8604C82.396 24.9122 81.3204 24.705 80.3984 24.2904ZM93.7675 11.5961C92.8455 12.1661 92.1284 12.9951 91.6161 14.0832C91.1039 15.1195 90.8478 16.363 90.8478 17.7101C90.8478 19.1091 91.1551 20.3526 91.6674 21.4407C92.1796 22.5288 92.8967 23.3578 93.8187 23.9278C94.7407 24.4977 95.7139 24.8086 96.8408 24.8086C97.7628 24.8086 98.6336 24.6531 99.3507 24.2386C100.068 23.8241 100.631 23.306 101.041 22.6842V24.6531H105.241V10.8708H101.041V12.8397C100.631 12.2179 100.068 11.6998 99.3507 11.2853C98.6336 10.9226 97.8141 10.7153 96.8408 10.7153C95.7139 10.7153 94.6895 11.0262 93.7675 11.5961ZM98.0702 14.3941C98.8897 14.3941 99.6068 14.705 100.17 15.3267C100.734 15.9485 101.041 16.7775 101.041 17.7619C101.041 18.7982 100.734 19.6272 100.17 20.249C99.6068 20.8708 98.8897 21.1816 98.0702 21.1816C97.2506 21.1816 96.5335 20.8708 95.97 20.249C95.4066 19.679 95.0993 18.7982 95.0993 17.7619C95.0993 16.7257 95.4066 15.8967 95.97 15.2749C96.5335 14.705 97.2506 14.3941 98.0702 14.3941ZM117.893 11.5961C116.869 12.1661 116.049 12.9951 115.486 14.0832C114.922 15.1195 114.615 16.2075 114.615 17.6583C114.615 19.1091 114.922 20.3526 115.486 21.4407C116.049 22.5288 116.869 23.3578 117.893 23.9278C118.918 24.4977 120.096 24.8086 121.428 24.8086C123.169 24.8086 124.552 24.3423 125.73 23.4096C126.857 22.5288 127.625 21.2334 127.984 19.6272H123.528C123.169 20.7153 122.452 21.2335 121.376 21.2335C120.608 21.2335 119.993 20.9744 119.532 20.3526C119.071 19.7309 118.866 18.9018 118.866 17.7619C118.866 16.6221 119.071 15.793 119.532 15.1713C119.993 14.6013 120.608 14.2904 121.376 14.2904C122.452 14.2904 123.169 14.8604 123.528 15.8967H127.984C127.625 14.2386 126.857 12.9951 125.73 12.0625C124.552 11.1816 123.118 10.7153 121.428 10.7153C120.096 10.7153 118.918 11.0262 117.893 11.5961Z"
                    fill="white" />
            </svg>